HIERARCHY
ROOT Hips
{
	OFFSET 0.000000 100.481300 0.000000
	CHANNELS 6 Xposition Yposition Zposition Xrotation Yrotation Zrotation
	JOINT Spine
	{
		OFFSET -0.279200 12.230698 -2.892100
		CHANNELS 3 Xrotation Yrotation Zrotation
		JOINT Spine1
		{
			OFFSET -0.325700 14.269203 -3.374200
			CHANNELS 3 Xrotation Yrotation Zrotation
			JOINT Spine2
			{
				OFFSET -0.372300 16.307602 -0.352600
				CHANNELS 3 Xrotation Yrotation Zrotation
				JOINT Neck
				{
					OFFSET -0.418800 17.814194 8.416900
					CHANNELS 3 Xrotation Yrotation Zrotation
					JOINT Head
					{
						OFFSET 0.000000 7.031097 3.806800
						CHANNELS 3 Xrotation Yrotation Zrotation
						JOINT HeadTop_End
						{
							OFFSET 0.000000 24.646606 12.978600
							CHANNELS 3 Xrotation Yrotation Zrotation
							End Site
							{
								OFFSET 0.000000 27.854965 0.000000
							}
						}
					}
				}
				JOINT LeftShoulder
				{
					OFFSET 16.952999 14.495407 -7.737500
					CHANNELS 3 Xrotation Yrotation Zrotation
					JOINT LeftArm
					{
						OFFSET 9.308998 -2.777710 0.208600
						CHANNELS 3 Xrotation Yrotation Zrotation
						JOINT LeftForeArm
						{
							OFFSET 29.972298 0.000000 0.000000
							CHANNELS 3 Xrotation Yrotation Zrotation
							JOINT LeftHand
							{
								OFFSET 26.026505 0.000000 0.000000
								CHANNELS 3 Xrotation Yrotation Zrotation
								JOINT LeftHandThumb1
								{
									OFFSET 12.240501 -7.147949 9.207150
									CHANNELS 3 Xrotation Yrotation Zrotation
									JOINT LeftHandThumb2
									{
										OFFSET 4.138618 -2.389435 2.389433
										CHANNELS 3 Xrotation Yrotation Zrotation
										JOINT LeftHandThumb3
										{
											OFFSET 2.726913 -1.574387 1.574386
											CHANNELS 3 Xrotation Yrotation Zrotation
											JOINT LeftHandThumb4
											{
												OFFSET 3.941010 -2.275345 2.275342
												CHANNELS 3 Xrotation Yrotation Zrotation
												End Site
												{
													OFFSET -0.005798 5.087799 0.009903
												}
											}
										}
									}
								}
								JOINT LeftHandIndex1
								{
									OFFSET 24.424698 -1.985611 5.953459
									CHANNELS 3 Xrotation Yrotation Zrotation
									JOINT LeftHandIndex2
									{
										OFFSET 6.426697 0.000000 0.000000
										CHANNELS 3 Xrotation Yrotation Zrotation
										JOINT LeftHandIndex3
										{
											OFFSET 5.337898 0.000000 0.000000
											CHANNELS 3 Xrotation Yrotation Zrotation
											JOINT LeftHandIndex4
											{
												OFFSET 4.409401 0.000000 0.000000
												CHANNELS 3 Xrotation Yrotation Zrotation
												End Site
												{
													OFFSET 0.000000 4.409363 0.014373
												}
											}
										}
									}
								}
								JOINT LeftHandMiddle1
								{
									OFFSET 23.810104 0.000000 0.000000
									CHANNELS 3 Xrotation Yrotation Zrotation
									JOINT LeftHandMiddle2
									{
										OFFSET 7.176498 0.000000 0.000000
										CHANNELS 3 Xrotation Yrotation Zrotation
										JOINT LeftHandMiddle3
										{
											OFFSET 6.774902 0.000000 0.000000
											CHANNELS 3 Xrotation Yrotation Zrotation
											JOINT LeftHandMiddle4
											{
												OFFSET 5.403328 0.000000 0.000000
												CHANNELS 3 Xrotation Yrotation Zrotation
												End Site
												{
													OFFSET -0.027702 5.403244 0.017414
												}
											}
										}
									}
								}
								JOINT LeftHandRing1
								{
									OFFSET 22.908401 -0.839279 -6.020567
									CHANNELS 3 Xrotation Yrotation Zrotation
									JOINT LeftHandRing2
									{
										OFFSET 6.337502 0.000000 0.000000
										CHANNELS 3 Xrotation Yrotation Zrotation
										JOINT LeftHandRing3
										{
											OFFSET 5.779297 0.000000 0.000000
											CHANNELS 3 Xrotation Yrotation Zrotation
											JOINT LeftHandRing4
											{
												OFFSET 4.965698 0.000000 0.000000
												CHANNELS 3 Xrotation Yrotation Zrotation
												End Site
												{
													OFFSET 0.000000 4.965668 0.016186
												}
											}
										}
									}
								}
								JOINT LeftHandPinky1
								{
									OFFSET 20.037003 -1.530319 -10.950146
									CHANNELS 3 Xrotation Yrotation Zrotation
									JOINT LeftHandPinky2
									{
										OFFSET 5.254700 0.000000 0.000000
										CHANNELS 3 Xrotation Yrotation Zrotation
										JOINT LeftHandPinky3
										{
											OFFSET 4.810204 0.000000 0.000000
											CHANNELS 3 Xrotation Yrotation Zrotation
											JOINT LeftHandPinky4
											{
												OFFSET 3.647202 0.000000 0.000000
												CHANNELS 3 Xrotation Yrotation Zrotation
												End Site
												{
													OFFSET 0.000000 3.647186 0.011889
												}
											}
										}
									}
								}
							}
						}
					}
				}
				JOINT RightShoulder
				{
					OFFSET -15.141001 14.495407 -7.737500
					CHANNELS 3 Xrotation Yrotation Zrotation
					JOINT RightArm
					{
						OFFSET -9.308998 -2.777710 0.208500
						CHANNELS 3 Xrotation Yrotation Zrotation
						JOINT RightForeArm
						{
							OFFSET -29.972300 0.000000 0.000000
							CHANNELS 3 Xrotation Yrotation Zrotation
							JOINT RightHand
							{
								OFFSET -26.026505 0.000000 0.000000
								CHANNELS 3 Xrotation Yrotation Zrotation
								JOINT RightHandThumb1
								{
									OFFSET -12.240601 -7.148026 9.207092
									CHANNELS 3 Xrotation Yrotation Zrotation
									JOINT RightHandThumb2
									{
										OFFSET -4.138618 -2.389435 2.389433
										CHANNELS 3 Xrotation Yrotation Zrotation
										JOINT RightHandThumb3
										{
											OFFSET -2.726974 -1.574417 1.574421
											CHANNELS 3 Xrotation Yrotation Zrotation
											JOINT RightHandThumb4
											{
												OFFSET -3.941010 -2.275345 2.275343
												CHANNELS 3 Xrotation Yrotation Zrotation
												End Site
												{
													OFFSET 0.005814 5.087799 0.009927
												}
											}
										}
									}
								}
								JOINT RightHandIndex1
								{
									OFFSET -24.424698 -1.985657 5.953444
									CHANNELS 3 Xrotation Yrotation Zrotation
									JOINT RightHandIndex2
									{
										OFFSET -6.426697 0.000000 0.000000
										CHANNELS 3 Xrotation Yrotation Zrotation
										JOINT RightHandIndex3
										{
											OFFSET -5.337898 0.000000 0.000000
											CHANNELS 3 Xrotation Yrotation Zrotation
											JOINT RightHandIndex4
											{
												OFFSET -4.409401 0.000000 0.000000
												CHANNELS 3 Xrotation Yrotation Zrotation
												End Site
												{
													OFFSET 0.000000 4.409363 0.014408
												}
											}
										}
									}
								}
								JOINT RightHandMiddle1
								{
									OFFSET -23.810097 0.000000 0.000000
									CHANNELS 3 Xrotation Yrotation Zrotation
									JOINT RightHandMiddle2
									{
										OFFSET -7.176498 0.000000 0.000000
										CHANNELS 3 Xrotation Yrotation Zrotation
										JOINT RightHandMiddle3
										{
											OFFSET -6.774902 0.000000 0.000000
											CHANNELS 3 Xrotation Yrotation Zrotation
											JOINT RightHandMiddle4
											{
												OFFSET -5.403328 0.000000 0.000000
												CHANNELS 3 Xrotation Yrotation Zrotation
												End Site
												{
													OFFSET 0.027702 5.403244 0.017457
												}
											}
										}
									}
								}
								JOINT RightHandRing1
								{
									OFFSET -22.908302 -0.839325 -6.020576
									CHANNELS 3 Xrotation Yrotation Zrotation
									JOINT RightHandRing2
									{
										OFFSET -6.337502 0.000000 0.000000
										CHANNELS 3 Xrotation Yrotation Zrotation
										JOINT RightHandRing3
										{
											OFFSET -5.779297 0.000000 0.000000
											CHANNELS 3 Xrotation Yrotation Zrotation
											JOINT RightHandRing4
											{
												OFFSET -4.965698 0.000000 0.000000
												CHANNELS 3 Xrotation Yrotation Zrotation
												End Site
												{
													OFFSET 0.000000 4.965668 0.016226
												}
											}
										}
									}
								}
								JOINT RightHandPinky1
								{
									OFFSET -20.037003 -1.530334 -10.950259
									CHANNELS 3 Xrotation Yrotation Zrotation
									JOINT RightHandPinky2
									{
										OFFSET -5.254700 0.000000 0.000000
										CHANNELS 3 Xrotation Yrotation Zrotation
										JOINT RightHandPinky3
										{
											OFFSET -4.810204 0.000000 0.000000
											CHANNELS 3 Xrotation Yrotation Zrotation
											JOINT RightHandPinky4
											{
												OFFSET -3.647202 0.000000 0.000000
												CHANNELS 3 Xrotation Yrotation Zrotation
												End Site
												{
													OFFSET 0.000000 3.647186 0.011917
												}
											}
										}
									}
								}
							}
						}
					}
				}
			}
		}
	}
	JOINT LeftUpLeg
	{
		OFFSET 15.427100 -6.655098 0.678600
		CHANNELS 3 Xrotation Yrotation Zrotation
		JOINT LeftLeg
		{
			OFFSET 4.081073 -39.591068 13.024000
			CHANNELS 3 Xrotation Yrotation Zrotation
			JOINT LeftFoot
			{
				OFFSET -4.081074 -37.707932 -15.979700
				CHANNELS 3 Xrotation Yrotation Zrotation
				JOINT LeftToeBase
				{
					OFFSET 5.346399 -15.068900 20.645000
					CHANNELS 3 Xrotation Yrotation Zrotation
					JOINT LeftToe_End
					{
						OFFSET 2.754700 0.931300 11.300900
						CHANNELS 3 Xrotation Yrotation Zrotation
						End Site
						{
							OFFSET 0.000000 11.669021 0.000000
						}
					}
				}
			}
		}
	}
	JOINT RightUpLeg
	{
		OFFSET -15.569500 -6.655098 0.678600
		CHANNELS 3 Xrotation Yrotation Zrotation
		JOINT RightLeg
		{
			OFFSET -4.081825 -39.591045 13.023800
			CHANNELS 3 Xrotation Yrotation Zrotation
			JOINT RightFoot
			{
				OFFSET 4.081824 -37.707954 -15.979600
				CHANNELS 3 Xrotation Yrotation Zrotation
				JOINT RightToeBase
				{
					OFFSET -5.346400 -15.068900 20.645000
					CHANNELS 3 Xrotation Yrotation Zrotation
					JOINT RightToe_End
					{
						OFFSET -2.754700 0.931300 11.300900
						CHANNELS 3 Xrotation Yrotation Zrotation
						End Site
						{
							OFFSET 0.000000 11.669021 0.000000
						}
					}
				}
			}
		}
	}
}
MOTION
Frames: 6
Frame Time: 0.033333
1.412046 75.778893 -4.990335 -6.709870 -47.219635 0.206496 8.496836 3.283480 -2.131399 9.250249 1.079698 -3.641661 9.261034 1.063966 -3.636267 3.358879 6.065596 0.906678 -6.508799 28.064105 -1.768110 0.000000 0.000001 0.000000 -0.336537 -2.377599 0.543420 -37.310417 12.944318 -50.841548 0.000027 -118.147888 0.000024 -7.660366 -9.303990 -7.358239 -6.141215 -11.690804 -6.761687 9.914112 42.595525 3.409873 -0.422807 8.108098 27.509118 -0.000001 0.000000 0.000001 0.255319 3.378216 -45.814334 5.654088 5.847751 -88.067448 2.162142 4.544807 -50.866379 0.000002 -0.000000 -0.000002 -0.461467 3.841593 -39.722686 6.450750 5.820352 -95.892857 2.182889 4.561563 -51.127743 0.000002 0.000001 -0.000001 0.469728 4.966827 -39.799444 8.181054 5.368612 -113.503018 3.200490 5.218115 -63.022975 -0.000003 -0.000000 0.000000 -3.762422 9.063681 -45.253821 5.342525 5.829009 -85.005297 8.716838 5.103336 -119.369167 -0.000002 -0.000000 0.000002 8.304675 21.695845 0.265673 -47.120604 34.025769 61.932050 0.000127 109.788263 -0.000134 -19.067438 16.742131 13.265553 -7.341118 13.749656 7.412345 9.855792 -44.489093 -3.903258 -0.115775 -14.513093 -28.973857 -0.000003 -0.000001 0.000001 -0.124378 -2.384790 45.108861 4.500588 -4.654545 88.071150 1.723224 -3.618376 50.920109 0.000001 -0.000001 -0.000003 -0.761628 -2.932909 39.031072 5.133893 -4.632758 95.881656 1.739747 -3.631697 51.181370 0.000000 0.000001 -0.000002 0.154758 -4.068818 39.122675 6.509732 -4.273596 113.462870 2.549583 -4.153922 63.067317 0.000002 -0.000002 -0.000002 -4.198875 -8.025513 44.637779 4.252919 -4.639645 85.014805 6.935967 -4.062623 119.322271 0.000002 -0.000001 -0.000001 -30.028483 5.874385 18.790672 48.773845 -5.334180 5.360315 -15.600586 -7.112155 -21.090799 -1.581929 -0.000013 0.000001 -0.000000 -0.000001 -0.000000 -22.085842 -12.267204 -34.694120 55.359199 1.510928 -3.485387 -25.796672 -9.652877 18.596945 -0.013096 0.000000 0.000010 0.000000 -0.000001 -0.000000 
1.673194 75.524536 -4.172810 -6.712660 -47.881043 -0.208430 8.592839 3.796549 -2.040686 8.188146 1.013824 -3.254093 8.198576 1.002342 -3.248178 2.827615 7.255532 1.517898 -3.990315 27.664558 -2.249824 -0.000000 0.000000 0.000000 -0.249075 -1.659360 -0.674923 -39.505954 11.734373 -51.112191 0.000028 -115.933732 0.000032 -5.559227 -8.573013 -8.452726 -6.141221 -11.690799 -6.761685 9.914111 42.595522 3.409872 -0.422811 8.108099 27.509118 0.000000 0.000002 -0.000000 0.255313 3.378218 -45.814341 5.654087 5.847750 -88.067455 2.162142 4.544811 -50.866379 -0.000001 -0.000000 -0.000004 -0.461472 3.841597 -39.722690 6.450753 5.820352 -95.892857 2.182889 4.561565 -51.127736 0.000001 0.000001 0.000003 0.469723 4.966830 -39.799451 8.181047 5.368612 -113.503018 3.200490 5.218113 -63.022975 -0.000001 0.000001 0.000000 -3.762429 9.063688 -45.253821 5.342529 5.829009 -85.005297 8.716836 5.103336 -119.369167 0.000002 0.000000 -0.000000 7.582920 20.232333 -0.493271 -48.144532 33.142817 65.350861 0.000082 109.211713 -0.000091 -17.621118 16.950388 12.517087 -7.341121 13.749652 7.412344 9.855800 -44.489089 -3.903261 -0.115780 -14.513093 -28.973861 -0.000001 0.000001 0.000000 -0.124379 -2.384793 45.108864 4.500585 -4.654543 88.071150 1.723224 -3.618382 50.920109 -0.000001 -0.000000 0.000001 -0.761626 -2.932911 39.031068 5.133892 -4.632759 95.881656 1.739747 -3.631703 51.181370 -0.000003 -0.000000 0.000002 0.154757 -4.068820 39.122675 6.509731 -4.273595 113.462863 2.549581 -4.153922 63.067324 -0.000002 -0.000000 0.000001 -4.198875 -8.025517 44.637783 4.252923 -4.639644 85.014798 6.935967 -4.062622 119.322271 0.000004 0.000001 -0.000000 -29.983144 6.010127 19.340983 49.940205 -5.149985 4.810445 -16.733192 -7.124552 -20.509376 -1.583163 -0.000004 -0.000001 0.000000 0.000001 0.000000 -21.746479 -11.421891 -34.247460 55.182857 1.013737 -4.184715 -25.390591 -9.753248 19.892818 -0.013081 -0.000017 0.000005 -0.000000 0.000000 0.000001 
1.861079 75.177513 -3.450271 -6.670450 -48.261362 -0.541409 8.705549 4.404984 -1.927468 7.100064 0.997896 -2.852577 7.110132 0.988876 -2.846655 2.292789 8.415057 2.117048 -1.371201 26.931791 -2.755461 0.000001 0.000000 0.000001 -0.120720 -0.780500 -1.998017 -41.764312 10.514185 -51.325730 0.000067 -113.943149 0.000077 -3.701895 -7.984360 -9.750458 -6.141217 -11.690802 -6.761690 9.914107 42.595522 3.409868 -0.422811 8.108100 27.509120 0.000001 0.000000 -0.000000 0.255317 3.378218 -45.814341 5.654087 5.847751 -88.067455 2.162142 4.544812 -50.866379 0.000001 -0.000001 -0.000001 -0.461469 3.841598 -39.722683 6.450749 5.820353 -95.892857 2.182890 4.561566 -51.127736 0.000001 -0.000000 0.000001 0.469727 4.966828 -39.799451 8.181050 5.368611 -113.503018 3.200489 5.218114 -63.022975 0.000001 -0.000000 0.000000 -3.762422 9.063684 -45.253821 5.342529 5.829009 -85.005297 8.716836 5.103333 -119.369153 0.000002 -0.000000 -0.000000 6.840403 18.863198 -1.319895 -48.854048 32.106168 68.789110 0.000041 108.619788 -0.000042 -16.105924 17.050565 11.781174 -7.341119 13.749646 7.412348 9.855796 -44.489093 -3.903258 -0.115775 -14.513093 -28.973857 -0.000004 0.000000 -0.000000 -0.124380 -2.384793 45.108857 4.500576 -4.654545 88.071150 1.723226 -3.618376 50.920109 0.000002 0.000000 -0.000000 -0.761628 -2.932910 39.031068 5.133892 -4.632761 95.881656 1.739747 -3.631702 51.181370 0.000001 0.000002 -0.000002 0.154758 -4.068818 39.122675 6.509736 -4.273595 113.462863 2.549581 -4.153924 63.067317 0.000000 -0.000001 -0.000002 -4.198876 -8.025514 44.637779 4.252918 -4.639644 85.014805 6.935966 -4.062622 119.322271 0.000001 -0.000000 0.000000 -30.169086 6.078288 19.789365 51.165756 -5.233741 4.370638 -17.747948 -7.091935 -19.907852 -1.591205 -0.000001 -0.000004 -0.000000 -0.000001 -0.000000 -21.343995 -10.700386 -34.057225 55.160205 0.341761 -4.632648 -25.194797 -9.679168 21.218428 -0.013063 -0.000004 -0.000003 -0.000000 -0.000000 -0.000000 
1.966426 74.738319 -2.907678 -6.500178 -48.199521 -0.679064 8.830923 5.057070 -1.798805 6.012385 1.002260 -2.436995 6.022709 0.994394 -2.422726 1.794594 9.509009 2.669215 1.126774 25.784106 -3.188059 -0.000000 0.000000 0.000000 0.069995 0.179532 -3.430939 -44.152778 9.313895 -51.342935 0.000036 -112.235328 0.000041 -2.194905 -7.663927 -11.124680 -6.141218 -11.690802 -6.761685 9.914116 42.595529 3.409865 -0.422804 8.108092 27.509123 -0.000001 -0.000004 0.000002 0.255315 3.378216 -45.814337 5.654084 5.847750 -88.067455 2.162142 4.544810 -50.866379 0.000000 -0.000001 -0.000002 -0.461471 3.841593 -39.722686 6.450749 5.820353 -95.892864 2.182890 4.561565 -51.127736 -0.000000 0.000002 0.000001 0.469724 4.966827 -39.799451 8.181049 5.368611 -113.503018 3.200491 5.218116 -63.022982 -0.000001 -0.000000 0.000000 -3.762424 9.063682 -45.253821 5.342527 5.829009 -85.005297 8.716837 5.103336 -119.369167 0.000000 0.000001 -0.000000 6.070902 17.548318 -2.172791 -49.202456 31.037906 72.167362 0.000084 108.013609 -0.000078 -14.472133 17.164650 11.099543 -7.341120 13.749652 7.412348 9.855797 -44.489093 -3.903257 -0.115776 -14.513092 -28.973861 -0.000002 0.000003 -0.000003 -0.124378 -2.384789 45.108861 4.500583 -4.654545 88.071150 1.723227 -3.618382 50.920109 0.000001 -0.000000 0.000002 -0.761627 -2.932907 39.031068 5.133894 -4.632760 95.881649 1.739749 -3.631701 51.181374 0.000001 -0.000002 -0.000001 0.154757 -4.068818 39.122675 6.509729 -4.273595 113.462863 2.549581 -4.153922 63.067317 -0.000002 0.000001 0.000001 -4.198874 -8.025511 44.637779 4.252915 -4.639644 85.014798 6.935968 -4.062620 119.322271 -0.000000 -0.000000 -0.000001 -30.725582 5.996711 20.033875 52.393497 -5.607410 4.102890 -18.513991 -7.032916 -19.309621 -1.592644 0.000001 -0.000003 -0.000000 -0.000001 -0.000000 -20.920484 -10.188605 -34.126221 55.365589 -0.394149 -4.794484 -25.272975 -9.622026 22.434144 -0.013046 -0.000021 -0.000003 -0.000000 0.000000 0.000000 
2.036727 74.266357 -2.460481 -6.267345 -47.930818 -0.705887 8.958904 5.719816 -1.670083 4.949433 1.015422 -2.016948 4.960388 1.008688 -2.000558 1.318543 10.545734 3.192217 3.487849 24.432118 -3.575248 0.000001 -0.000000 -0.000000 0.312519 1.143911 -4.904090 -46.567239 8.131052 -51.312838 0.000125 -110.717353 0.000126 -0.883784 -7.501084 -12.498784 -6.141216 -11.690803 -6.761692 9.914112 42.595522 3.409870 -0.422807 8.108098 27.509120 0.000002 0.000004 -0.000002 0.255317 3.378218 -45.814341 5.654085 5.847749 -88.067455 2.162142 4.544810 -50.866379 0.000000 0.000001 -0.000002 -0.461469 3.841593 -39.722690 6.450749 5.820351 -95.892857 2.182890 4.561569 -51.127733 -0.000001 0.000000 0.000002 0.469726 4.966829 -39.799454 8.181049 5.368611 -113.503018 3.200489 5.218114 -63.022982 0.000000 0.000000 -0.000001 -3.762425 9.063685 -45.253825 5.342529 5.829009 -85.005297 8.716837 5.103336 -119.369153 -0.000002 0.000001 0.000000 5.280913 16.266439 -3.022966 -49.302696 29.997187 75.422186 -0.000021 107.405005 0.000003 -12.790281 17.313741 10.449540 -7.341118 13.749652 7.412346 9.855796 -44.489096 -3.903263 -0.115774 -14.513090 -28.973861 -0.000001 0.000001 -0.000000 -0.124379 -2.384792 45.108857 4.500580 -4.654543 88.071150 1.723227 -3.618380 50.920105 -0.000001 -0.000001 0.000000 -0.761625 -2.932905 39.031068 5.133893 -4.632759 95.881656 1.739747 -3.631701 51.181370 -0.000001 -0.000000 0.000001 0.154758 -4.068815 39.122671 6.509730 -4.273594 113.462863 2.549581 -4.153922 63.067317 -0.000001 0.000001 -0.000003 -4.198872 -8.025512 44.637779 4.252916 -4.639645 85.014798 6.935964 -4.062622 119.322285 -0.000001 -0.000000 0.000000 -31.442540 5.843159 20.167814 53.584712 -6.084689 3.907585 -19.135723 -6.989782 -18.720131 -1.593225 0.000028 0.000003 -0.000000 -0.000001 0.000000 -20.536048 -9.830201 -34.351395 55.675249 -1.093676 -4.825264 -25.469851 -9.564454 23.549640 -0.013021 0.000005 -0.000012 -0.000000 -0.000001 0.000000 
2.117332 73.823997 -1.998926 -6.066936 -47.737623 -0.747261 9.077461 6.367572 -1.548391 3.931568 1.035625 -1.609665 3.943233 1.030037 -1.591232 0.843479 11.540832 3.704662 5.779003 23.129213 -3.990494 0.000001 -0.000000 0.000001 0.591649 2.068033 -6.345755 -48.851528 6.993563 -51.414556 -0.000049 -109.293094 -0.000052 0.415566 -7.344881 -13.844796 -6.141218 -11.690802 -6.761687 9.914108 42.595529 3.409865 -0.422807 8.108097 27.509118 0.000003 0.000003 -0.000002 0.255316 3.378216 -45.814337 5.654086 5.847750 -88.067448 2.162143 4.544810 -50.866379 0.000001 -0.000002 -0.000000 -0.461472 3.841595 -39.722686 6.450749 5.820352 -95.892857 2.182888 4.561564 -51.127733 -0.000001 -0.000002 -0.000001 0.469725 4.966826 -39.799451 8.181050 5.368612 -113.503018 3.200489 5.218117 -63.022982 0.000003 -0.000000 -0.000000 -3.762426 9.063682 -45.253825 5.342530 5.829009 -85.005297 8.716837 5.103334 -119.369167 0.000002 0.000000 -0.000000 4.491806 15.045536 -3.862365 -49.281864 28.996110 78.499166 0.000088 106.801899 -0.000099 -11.172747 17.453478 9.823830 -7.341117 13.749651 7.412344 9.855796 -44.489096 -3.903258 -0.115778 -14.513092 -28.973861 0.000000 0.000001 -0.000000 -0.124378 -2.384791 45.108864 4.500585 -4.654544 88.071150 1.723224 -3.618379 50.920105 0.000000 -0.000000 0.000001 -0.761626 -2.932909 39.031068 5.133892 -4.632760 95.881656 1.739747 -3.631700 51.181363 0.000001 0.000002 0.000003 0.154760 -4.068816 39.122675 6.509729 -4.273596 113.462863 2.549583 -4.153923 63.067317 0.000001 -0.000001 -0.000002 -4.198874 -8.025513 44.637779 4.252916 -4.639645 85.014805 6.935967 -4.062623 119.322271 -0.000001 0.000000 0.000000 -32.056079 5.734346 20.300516 54.709979 -6.518666 3.691624 -19.766579 -6.952252 -18.125654 -1.592252 0.000013 0.000002 -0.000000 0.000001 0.000000 -20.229680 -9.544700 -34.654860 55.927717 -1.762931 -4.876504 -25.615733 -9.346492 24.654352 -0.013020 -0.000008 -0.000005 0.000000 0.000000 -0.000000 
